# xmcd
#
# Track frame offsets: 
#        150
#        11463
#        23161
#        35025
#        46732
#        57067
#        68736
#        79806
#        91298
#        101472
#        112088
#        122991
#        133884
#        143719
#        153289
#        164059
#        177415
#        188256
#        198500
#        208940
#        219610
#        230154
#        241042
#        250154
#
# Disc length: 3497 seconds
#
# Revision: 0
# Processed by: cddbd v1.5.2PL0 Copyright (c) Steve Scherf et al.
# Submitted via: ExactAudioCopy v1.0b3
#
DISCID=530da718
DTITLE=Chubby Checker - Twist It Up # 02
DYEAR=1900
DGENRE=R&B
TTITLE0=Pony Time
TTITLE1=The Watusi
TTITLE2=The Hully Gully
TTITLE3=The Stroll
TTITLE4=Mashed Potatoes
TTITLE5=Hi Ho Silver
TTITLE6=We Like Birdland
TTITLE7=Let's Dance Let's Dance Let's Dance
TTITLE8=The Shimmy
TTITLE9=The Charleston
TTITLE10=The Mess Around
TTITLE11=Pony Express
TTITLE12=I Could Have Danced All Night
TTITLE13=The Jet
TTITLE14=Continental Walk
TTITLE15=I Almost Lost My Mind
TTITLE16=Fishin'
TTITLE17=Quarter To Three
TTITLE18=Let's Twist Again
TTITLE19=Ballin' The Jack
TTITLE20=Peanut Butter
TTITLE21=The Ray Charles-ton
TTITLE22=Takes Two To Tango
TTITLE23=Dance-A-Long
EXTD=
EXTT0=
EXTT1=
EXTT2=
EXTT3=
EXTT4=
EXTT5=
EXTT6=
EXTT7=
EXTT8=
EXTT9=
EXTT10=
EXTT11=
EXTT12=
EXTT13=
EXTT14=
EXTT15=
EXTT16=
EXTT17=
EXTT18=
EXTT19=
EXTT20=
EXTT21=
EXTT22=
EXTT23=
PLAYORDER=
